<svg xmlns="http://www.w3.org/2000/svg" viewBox="0 0 452.418 394.644">
    <defs>
        <style>
            .cls-1 {
            fill: #fff;
            }

            .cls-2 {
            fill: #ab00ff;
            }

            .cls-3 {
            fill: #290689;
            }

            .cls-4 {
            fill: none;
            stroke: #ab00ff;
            stroke-miterlimit: 10;
            stroke-width: 3px;
            }
        </style>
    </defs>
    <g id="Symbol_13_1" data-name="Symbol 13 – 1" transform="translate(-156.976 -136.187)">
        <g id="Group_3" data-name="Group 3" transform="translate(157.17 466.294)">
            <g id="Group_2" data-name="Group 2" transform="translate(20.581 6.101)">
                <g id="Group_1" data-name="Group 1">
                    <path id="Path_1" data-name="Path 1" class="cls-1"
                          d="M570.4,500.944H543.863c-8.012,0-12.863-4.7-12.863-12.422s4.851-12.422,12.863-12.422H570.4c8.012,0,12.863,4.7,12.863,12.422S578.337,500.944,570.4,500.944Zm-.073-17.126H543.937c-3.749,0-5.807,1.691-5.807,4.7s2.058,4.7,5.807,4.7h26.388c3.749,0,5.807-1.691,5.807-4.7S574.073,483.818,570.325,483.818Z"
                          transform="translate(532.184 -530.963) rotate(90)"/>
                    <path id="Path_2" data-name="Path 2" class="cls-1"
                          d="M504.968,469.114v1.911c0,4.925-1.47,9.188-6.321,17.053l-8.526,13.745h14.848V509.1H481.3v-6.542l11.393-18.376c3.528-5.733,4.557-9.262,4.557-13.451v-1.1c0-3.308-1.47-5.072-4.263-5.072s-4.263,1.764-4.263,6.027v2.573l-7.424-.368v-3.455c0-7.5,4.41-11.834,11.834-11.834C500.485,457.5,504.968,461.763,504.968,469.114Z"
                          transform="translate(-481.3 -457.426)"/>
                    <path id="Path_3" data-name="Path 3" class="cls-1"
                          d="M622.485,509.191V470.161H611.9v-5.366c6.174-.441,11.32-2.573,12.937-6.395H630.2v50.791Z"
                          transform="translate(-547.904 -457.665)"/>
                    <path id="Path_4" data-name="Path 4" class="cls-1"
                          d="M647.141,497.68V495.4l7.424-.368v1.838c0,3.822,1.47,5.66,4.484,5.66s4.631-1.764,4.631-5.219V486.8h-.147a8.526,8.526,0,0,1-6.689,2.793c-5.66,0-10.144-4.043-10.144-12.422v-6.909c0-8.012,4.7-12.863,12.422-12.863,7.571,0,12.275,4.851,12.275,12.863v27.123c0,7.718-4.557,12.275-12.2,12.275S647.141,505.4,647.141,497.68Zm16.539-21.022v-6.321c0-3.749-1.691-5.807-4.631-5.807s-4.631,2.058-4.631,5.807v6.321c0,3.749,1.69,5.807,4.631,5.807S663.679,480.48,663.679,476.658Z"
                          transform="translate(-557.124 -457.4)"/>
                </g>
            </g>
            <path id="Path_5" data-name="Path 5" class="cls-2" d="M453.3,449.1v64.537h7.644V449.1Z"
                  transform="translate(-453.3 -449.1)"/>
        </g>
        <g id="Group_6" data-name="Group 6" transform="translate(156.976 136.187)">
            <path id="Path_7" data-name="Path 7" class="cls-1"
                  d="M65.2,165.653V74.508h-.294l-11.981,44.1H44.4l-11.908-44.1H32.2v59.538H18.6V45.4H37.491L48.737,96.485h.294L60.2,45.4H79.608V165.653Z"
                  transform="translate(-4.928 -12.029)"/>
            <path id="Path_8" data-name="Path 8" class="cls-1" d="M281.8,128.485V0h14.407V128.485Z"
                  transform="translate(-74.665)"/>
            <path id="Path_9" data-name="Path 9" class="cls-1"
                  d="M381.02,164.983H365.658l-24.4-70.417-6.248,12.2V125.29H320.6V29h14.407V80.747h.294l19.993-39.692h15.068L350.81,78.836Z"
                  transform="translate(-84.946 -7.684)"/>
            <path id="Path_10" data-name="Path 10" class="cls-1"
                  d="M37.822,274.308H31.133v40.207H16.8V219.4H37.6c15.509,0,23.889,8.453,23.889,24.036V250.2c0,10.07-3.528,17.126-10.217,20.949l21.978,77.326H58.036ZM31.207,261h5.807c6.909,0,10.07-3.675,10.07-11.687v-4.925c0-8.012-3.161-11.687-10.07-11.687H31.207Z"
                  transform="translate(-4.451 -58.132)"/>
            <path id="Path_11" data-name="Path 11" class="cls-1"
                  d="M140.155,255.136v29.843c0,14.921-8.82,24.036-23.227,24.036S93.7,299.9,93.7,284.978V255.136c0-14.921,8.82-24.036,23.227-24.036C131.261,231.1,140.155,240.214,140.155,255.136Zm-32.121.147v29.622c0,7.056,3.161,10.879,8.821,10.879,5.733,0,8.82-3.822,8.82-10.879V255.283c0-7.056-3.161-10.879-8.82-10.879S108.033,248.226,108.033,255.283Z"
                  transform="translate(-24.827 -61.232)"/>
            <path id="Path_12" data-name="Path 12" class="cls-1"
                  d="M526.155,241.636v29.843c0,14.921-8.82,24.036-23.227,24.036S479.7,286.4,479.7,271.479V241.636c0-14.921,8.82-24.036,23.227-24.036S526.155,226.714,526.155,241.636Zm-32.048.147V271.4c0,7.056,3.161,10.879,8.82,10.879,5.733,0,8.82-3.822,8.82-10.879V241.783c0-7.056-3.161-10.879-8.82-10.879S494.107,234.726,494.107,241.783Z"
                  transform="translate(-127.101 -57.655)"/>
            <path id="Path_13" data-name="Path 13" class="cls-1"
                  d="M272.355,249.6c15.509,0,23.889,8.453,23.889,24.036V320.6c0,15.656-8.453,24.036-23.889,24.036H251.7V249.6Zm-6.248,81.81h5.733c6.909,0,10.07-3.675,10.07-11.687V274.591c0-8.012-3.161-11.687-10.07-11.687h-5.733Z"
                  transform="translate(-66.69 -66.134)"/>
            <path id="Path_14" data-name="Path 14" class="cls-1"
                  d="M429.733,351.213V268.448H412.607v82.766H398.2V224.051h14.407v30.8h17.126V202H444.14V351.213Z"
                  transform="translate(-105.507 -53.522)"/>
            <path id="Path_15" data-name="Path 15" class="cls-1"
                  d="M550.338,373.95l-8.159-56.672h-.294l-8.306,56.672h-14.7L508,307.429h14.774l4.631,34.4h.294l8.159-50.13h12.79l8.159,50.13h.294L572.61,229h14.407l-21.9,144.877H550.338Z"
                  transform="translate(-134.599 -60.676)"/>
            <path id="Path_16" data-name="Path 16" class="cls-1"
                  d="M201.337,195.1H182.961L162.6,330.274h14.407l7.056-43.809,1.911-13.01,5.807-57.921h.441l5.807,57.921,1.911,13.01,3.161,21.61h14.627Z"
                  transform="translate(-43.082 -51.693)"/>
            <g id="Group_4" data-name="Group 4" transform="translate(239.476 160.018)">
                <path id="Path_17" data-name="Path 17" class="cls-1"
                      d="M379.192,256.8l-13.745,1.47H365.3v6.174l13.892-1.4Z" transform="translate(-336.266 -228.06)"/>
                <path id="Path_18" data-name="Path 18" class="cls-1"
                      d="M352.261,258.936c-9.629-8.159-12.055-12.937-12.055-18.45v-1.25c0-5.439,2.573-8.306,7.35-8.306s7.35,2.867,7.35,8.306v2.205l13.819-1.323v-1.1c0-13.6-7.718-21.316-21.463-21.316S325.8,225.418,325.8,239.016v2.058c0,11.173,4.484,19.038,17.641,30.137,9.629,8.159,12.5,12.937,12.5,18.891v3.161c0,5.954-2.72,8.967-8.159,8.967s-8.159-3.014-8.159-8.967V277.238L325.8,278.561v15.656c0,13.6,8.012,21.316,22.272,21.316s22.272-7.718,22.272-21.316V289.44C370.344,277.9,365.419,270.035,352.261,258.936Z"
                      transform="translate(-325.8 -217.7)"/>
            </g>
            <path id="Path_19" data-name="Path 19" class="cls-1"
                  d="M222.755,34.2H202.1V76.171l14.407,14.407V47.5h5.733c6.909,0,10.07,3.675,10.07,11.687v45.132c0,8.012-3.161,11.687-10.07,11.687h-5.733V103.073L202.1,88.667v40.648h20.655c15.509,0,23.889-8.453,23.889-24.036V58.236C246.717,42.579,238.264,34.2,222.755,34.2Z"
                  transform="translate(-53.548 -9.062)"/>
            <g id="Group_5" data-name="Group 5" transform="translate(89.381 13.966)">
                <path id="Path_20" data-name="Path 20" class="cls-1" d="M177.007,57.443V19H162.6V43.036Z"
                      transform="translate(-132.463 -19)"/>
                <path id="Path_21" data-name="Path 21" class="cls-1"
                      d="M151.737,62.526v56.231c0,6.909-3.161,9.482-8.159,9.482s-8.159-2.573-8.159-9.482V45.4H121.6v73.725c0,14.921,8.526,22.713,22.125,22.713,13.819,0,22.419-7.718,22.419-22.713V76.933Z"
                      transform="translate(-121.6 -25.995)"/>
            </g>
            <line id="Line_1" data-name="Line 1" class="cls-3" y1="71.887" transform="translate(0 25.138)"/>
        </g>
        <g id="Group_7" data-name="Group 7" transform="translate(156.976 157.503)">
            <line id="Line_2" data-name="Line 2" class="cls-4" x1="29.034" y2="181.629"
                  transform="translate(420.811 127.162)"/>
            <line id="Line_3" data-name="Line 3" class="cls-4" x1="31.607" y1="120.841"
                  transform="translate(31.974 162.15)"/>
            <line id="Line_4" data-name="Line 4" class="cls-4" y2="104.155" transform="translate(68.873 42.926)"/>
            <line id="Line_5" data-name="Line 5" class="cls-4" x2="35.208" transform="translate(74.68 233.743)"/>
            <line id="Line_6" data-name="Line 6" class="cls-4" x2="22.272" transform="translate(148.552 196.477)"/>
            <line id="Line_7" data-name="Line 7" class="cls-4" y1="79.384" x2="43.147" transform="translate(253.957)"/>
            <line id="Line_8" data-name="Line 8" class="cls-4" y2="135.027" transform="translate(319.008 156.931)"/>
            <line id="Line_9" data-name="Line 9" class="cls-4" y2="56.892" transform="translate(203.459 219.483)"/>
            <line id="Line_10" data-name="Line 10" class="cls-4" x2="40.574" transform="translate(0 107.169)"/>
        </g>
    </g>
</svg>
