<svg xmlns="http://www.w3.org/2000/svg" viewBox="0 0 329.389 209.27">
    <defs>
        <style>
            .cls-1 {
            fill: url(#linear-gradient);
            }
        </style>
        <linearGradient id="linear-gradient" y1="1" x2="1.2" y2="-0.751" gradientUnits="objectBoundingBox">
            <stop offset="0" stop-color="#892df2"/>
            <stop offset="0.466" stop-color="#e762c2"/>
            <stop offset="1" stop-color="#fe6fb6"/>
        </linearGradient>
    </defs>
    <g id="Symbol_1_1" data-name="Symbol 1 – 1" transform="translate(0 -467.73)">
        <path id="Subtraction_3" data-name="Subtraction 3" class="cls-1"
              d="M328.778,209.271H0v-146c.015-.04,1.487-4.039,4.18-9.886A176.726,176.726,0,0,1,16.06,31.635c5.961-9.184,12.216-16.5,18.592-21.749a47.791,47.791,0,0,1,11.5-7.167A32.584,32.584,0,0,1,58.966,0,34.289,34.289,0,0,1,74.848,4.136c5.726,2.981,11.518,7.635,17.213,13.833a142.6,142.6,0,0,1,21.014,29.59,240.712,240.712,0,0,1,11.74,26.46c5.069,12.9,9.446,24.033,18.073,31.743,9.279,8.292,23.248,12.154,43.96,12.154a245.543,245.543,0,0,0,25.844-1.537,137.833,137.833,0,0,1,14.479-.773,127.876,127.876,0,0,1,24.976,2.43,116.042,116.042,0,0,1,22.545,6.908,103.926,103.926,0,0,1,19.489,10.814,91.607,91.607,0,0,1,15.807,14.149,77.923,77.923,0,0,1,15.835,27.4,72.667,72.667,0,0,1,2.956,31.961Z"
              transform="translate(0 467.73)"/>
    </g>
</svg>
