<svg xmlns="http://www.w3.org/2000/svg" viewBox="0 0 198.031 198.03">
    <defs>
        <style>
            .cls-1 {
            fill: url(#linear-gradient);
            }

            .cls-2 {
            fill: url(#linear-gradient-2);
            }
        </style>
        <linearGradient id="linear-gradient" x1="0.5" x2="0.5" y2="1" gradientUnits="objectBoundingBox">
            <stop offset="0" stop-color="#c44ed3"/>
            <stop offset="1" stop-color="#6a17e9"/>
        </linearGradient>
        <linearGradient id="linear-gradient-2" x1="0.5" x2="0.5" y2="1" gradientUnits="objectBoundingBox">
            <stop offset="0" stop-color="#c44ed3"/>
            <stop offset="1" stop-color="#e9178e"/>
        </linearGradient>
    </defs>
    <g id="Symbol_2_1" data-name="Symbol 2 – 1" transform="translate(-1240.86 -59.282)">
        <g id="Group_9" data-name="Group 9" transform="translate(171.85 258.663) rotate(-14)">
            <circle id="Ellipse_1" data-name="Ellipse 1" class="cls-1" cx="55.795" cy="55.795" r="55.795"
                    transform="matrix(0.839, -0.545, 0.545, 0.839, 1087.111, 166.17)"/>
            <path id="Subtraction_2" data-name="Subtraction 2" class="cls-2"
                  d="M149.5,163.362a31.856,31.856,0,0,1-5.089-.443c-6.766-1.1-14.942-4.194-24.3-9.184A217,217,0,0,1,90.182,134,338.36,338.36,0,0,1,57.9,105.457,338.37,338.37,0,0,1,29.364,73.18,217.046,217.046,0,0,1,9.628,43.253C4.637,33.894,1.547,25.718.443,18.952A25.839,25.839,0,0,1,.354,9.938,12.087,12.087,0,0,1,3.559,3.559,12.081,12.081,0,0,1,9.938.354,20.542,20.542,0,0,1,13.865,0a31.885,31.885,0,0,1,5.088.443c6.767,1.1,14.943,4.195,24.3,9.185A209.023,209.023,0,0,1,69.479,26.555a55.961,55.961,0,0,0-8.787,4.064c-1.436-.843-2.871-1.647-4.264-2.389-6.672-3.552-12.5-5.748-17.325-6.528a22.877,22.877,0,0,0-3.623-.314c-3.192,0-5.669.859-7.361,2.552-2.293,2.293-3.046,5.988-2.237,10.984.781,4.826,2.978,10.655,6.529,17.325,7.3,13.72,19.514,29.462,34.378,44.326s30.607,27.074,44.326,34.378c6.672,3.552,12.5,5.748,17.325,6.528a22.866,22.866,0,0,0,3.624.315c3.191,0,5.667-.858,7.36-2.551,2.293-2.293,3.045-5.989,2.237-10.984-.724-4.477-2.672-9.829-5.788-15.907a55.919,55.919,0,0,0,4.627-9.4,197.914,197.914,0,0,1,13.235,21.155c4.991,9.358,8.081,17.534,9.184,24.3a25.841,25.841,0,0,1,.089,9.015,11.353,11.353,0,0,1-9.584,9.584A20.539,20.539,0,0,1,149.5,163.362Z"
                  transform="translate(1075.929 103.505)"/>
        </g>
    </g>
</svg>
